<?xml version="1.0" standalone="no"?><!DOCTYPE svg PUBLIC "-//W3C//DTD SVG 1.1//EN" "http://www.w3.org/Graphics/SVG/1.1/DTD/svg11.dtd"><svg t="1656244067968" class="icon" viewBox="0 0 1024 1024" version="1.1" xmlns="http://www.w3.org/2000/svg" p-id="5371" xmlns:xlink="http://www.w3.org/1999/xlink" width="200" height="200"><defs><style type="text/css">@font-face { font-family: feedback-iconfont; src: url("//at.alicdn.com/t/font_1031158_u69w8yhxdu.woff2?t=1630033759944") format("woff2"), url("//at.alicdn.com/t/font_1031158_u69w8yhxdu.woff?t=1630033759944") format("woff"), url("//at.alicdn.com/t/font_1031158_u69w8yhxdu.ttf?t=1630033759944") format("truetype"); }
</style></defs><path d="M170.241064 281.748961a106.400665 106.400665 0 1 1 106.400665-106.400665A106.400665 106.400665 0 0 1 170.241064 281.748961z m0-170.241064a63.840399 63.840399 0 1 0 63.840399 63.840399A63.840399 63.840399 0 0 0 170.241064 111.507897zM510.723192 281.748961a106.400665 106.400665 0 1 1 106.400665-106.400665 106.400665 106.400665 0 0 1-106.400665 106.400665z m0-170.241064a63.840399 63.840399 0 1 0 63.840399 63.840399 63.840399 63.840399 0 0 0-63.840399-63.840399zM510.723192 610.314214a106.400665 106.400665 0 1 1 106.400665-106.400665 106.400665 106.400665 0 0 1-106.400665 106.400665z m0-170.241064a63.840399 63.840399 0 1 0 63.840399 63.840399 63.840399 63.840399 0 0 0-63.840399-63.840399zM851.20532 281.748961a106.400665 106.400665 0 1 1 106.400665-106.400665 106.400665 106.400665 0 0 1-106.400665 106.400665z m0-170.241064a63.840399 63.840399 0 1 0 63.840399 63.840399 64.266002 64.266002 0 0 0-63.840399-63.840399zM851.20532 952.498753a106.400665 106.400665 0 1 1 106.400665-106.400665 106.400665 106.400665 0 0 1-106.400665 106.400665z m0-170.241064a63.840399 63.840399 0 1 0 63.840399 63.840399 63.840399 63.840399 0 0 0-63.840399-63.840399zM851.20532 610.314214a106.400665 106.400665 0 1 1 106.400665-106.400665 106.400665 106.400665 0 0 1-106.400665 106.400665z m0-170.241064a63.840399 63.840399 0 1 0 63.840399 63.840399 64.266002 64.266002 0 0 0-63.840399-63.840399z" p-id="5372"></path></svg>